<svg viewBox="0 0 640 400" data-background-color="#ffffff" preserveAspectRatio="xMidYMid meet" height="400" width="640" xmlns="http://www.w3.org/2000/svg" xmlns:xlink="http://www.w3.org/1999/xlink"><rect width="640" height="400" x="0" y="0" opacity="1" fill="#ffffff" data-fill-palette-color="background" id="background"></rect><g id="tight-bounds" transform="matrix(1,0,0,1,132.46023559570312,101.72962951660156)"><svg viewBox="0 0 375.07952880859375 196.54074096679688" height="196.54074096679688" width="375.07952880859375"><g><svg></svg></g><g><svg viewBox="0 0 375.07952880859375 196.54074096679688" height="196.54074096679688" width="375.07952880859375"><g transform="matrix(1,0,0,1,-10.220239639282227,-28.615829467773438)"><path d="M10.22 218.584v-189.968h375.08v189.968h-11.013l0-6.105h4.907v-177.758h-362.868v177.758h7.927l0 6.105z" fill="#6d285f" data-fill-palette-color="tertiary"></path><path d="M51.593 201.946c-0.758 0-1.297 0.177-1.619 0.53-0.321 0.358-0.482 0.939-0.482 1.743v0 2.204h3.857l-0.482 3.099h-3.375v15.118h-4.305v-15.118h-2.617v-3.099h2.617v-2.17c0-1.676 0.512-3.026 1.536-4.05 1.019-1.019 2.482-1.529 4.387-1.529v0c1.515 0 2.962 0.344 4.34 1.033v0l-1.206 2.859c-0.895-0.413-1.779-0.62-2.651-0.62zM102.966 220.06c0 0.643 0.092 1.118 0.276 1.426 0.184 0.312 0.482 0.56 0.895 0.743v0l-0.895 2.859c-0.987-0.115-1.786-0.367-2.397-0.758-0.606-0.39-1.058-0.999-1.357-1.825v0c-1.125 1.768-2.755 2.652-4.89 2.652v0c-1.63 0-2.927-0.517-3.892-1.55-0.964-1.033-1.446-2.388-1.446-4.064v0c0-1.974 0.654-3.485 1.963-4.532 1.309-1.042 3.203-1.563 5.682-1.563v0h1.825v-1.137c0-1.148-0.23-1.963-0.688-2.445-0.459-0.482-1.205-0.723-2.239-0.723v0c-1.194 0-2.663 0.31-4.408 0.93v0l-0.998-2.858c2.089-0.872 4.121-1.309 6.095-1.309v0c4.316 0 6.474 2.055 6.474 6.164v0zM95.769 222.023c1.263 0 2.25-0.746 2.961-2.239v0-3.788h-1.377c-2.525 0-3.788 1.079-3.788 3.237v0c0 0.918 0.195 1.612 0.585 2.08 0.39 0.473 0.93 0.709 1.619 0.71zM147.831 205.906c2.273 0 4.247 0.723 5.923 2.17v0l-1.687 2.445c-1.355-0.964-2.698-1.446-4.029-1.447v0c-0.758 0-1.343 0.172-1.757 0.517-0.413 0.344-0.62 0.815-0.62 1.412v0c0 0.436 0.096 0.792 0.29 1.067 0.197 0.276 0.537 0.546 1.019 0.813 0.482 0.262 1.205 0.553 2.17 0.875v0c1.745 0.574 3.042 1.286 3.891 2.135 0.849 0.849 1.274 2.02 1.274 3.513v0c0 1.791-0.673 3.196-2.018 4.215-1.341 1.024-3.033 1.536-5.076 1.536v0c-1.355 0-2.594-0.225-3.719-0.675-1.125-0.445-2.101-1.07-2.927-1.874v0l2.135-2.376c1.423 1.148 2.881 1.722 4.373 1.722v0c0.872 0 1.554-0.195 2.046-0.586 0.496-0.39 0.744-0.941 0.744-1.653v0c0-0.528-0.099-0.953-0.296-1.274-0.193-0.321-0.542-0.62-1.047-0.895-0.505-0.276-1.274-0.574-2.308-0.895v0c-1.699-0.574-2.934-1.297-3.705-2.17-0.767-0.872-1.15-1.951-1.15-3.237v0c0-1.01 0.264-1.924 0.792-2.741 0.528-0.813 1.286-1.449 2.273-1.908 0.987-0.459 2.124-0.689 3.409-0.689zM201.333 205.906c1.423 0 2.555 0.482 3.395 1.446 0.836 0.964 1.254 2.273 1.254 3.926v0 13.362h-4.305v-12.776c0-0.964-0.154-1.648-0.461-2.053-0.312-0.399-0.767-0.599-1.364-0.599v0c-1.148 0-2.238 0.907-3.272 2.721v0 12.707h-4.304v-25.484l4.304-0.447v9.883c0.643-0.895 1.343-1.568 2.101-2.018 0.758-0.445 1.642-0.668 2.652-0.668zM245.268 206.423h4.305v18.217h-4.305zM247.437 197.262c0.781 0 1.419 0.246 1.915 0.737 0.491 0.496 0.737 1.123 0.737 1.881v0c0 0.758-0.246 1.382-0.737 1.873-0.496 0.496-1.134 0.744-1.915 0.744v0c-0.781 0-1.417-0.248-1.907-0.744-0.496-0.491-0.744-1.116-0.744-1.873v0c0-0.758 0.248-1.384 0.744-1.881 0.491-0.491 1.127-0.737 1.907-0.737zM295.918 205.906c2.457 0 4.374 0.826 5.751 2.48 1.377 1.653 2.066 4.029 2.067 7.128v0c0 2.985-0.696 5.338-2.087 7.06-1.387 1.722-3.297 2.583-5.731 2.583v0c-2.457 0-4.38-0.845-5.771-2.535-1.387-1.685-2.08-4.054-2.08-7.108v0c0-3.008 0.693-5.361 2.08-7.06 1.391-1.699 3.315-2.548 5.771-2.548zM295.918 209.178c-1.125 0-1.963 0.498-2.514 1.494-0.551 1.001-0.826 2.615-0.826 4.842v0c0 2.25 0.276 3.873 0.826 4.87 0.551 1.001 1.389 1.501 2.514 1.501v0c1.125 0 1.963-0.505 2.514-1.515 0.551-1.01 0.826-2.629 0.827-4.856v0c0-2.25-0.276-3.868-0.827-4.856-0.551-0.987-1.389-1.481-2.514-1.48zM351.321 205.906c1.446 0 2.583 0.482 3.409 1.446 0.826 0.964 1.24 2.273 1.24 3.926v0 13.362h-4.305v-12.776c0-0.964-0.156-1.648-0.468-2.053-0.308-0.399-0.76-0.599-1.357-0.599v0c-0.62 0-1.194 0.23-1.722 0.689-0.528 0.459-1.045 1.136-1.549 2.032v0 12.707h-4.305v-18.217h3.754l0.31 2.376c0.666-0.941 1.405-1.66 2.217-2.156 0.817-0.491 1.743-0.737 2.776-0.737z" fill="#ef85d1" data-fill-palette-color="secondary"></path></g><g transform="matrix(1,0,0,1,29.331764404296877,64.41818177496843)"><svg viewBox="0 0 316.416 67.70437741686001" height="67.70437741686001" width="316.416"><g><svg viewBox="0 0 316.416 67.70437741686001" height="67.70437741686001" width="316.416"><g><svg viewBox="0 0 316.416 67.70437741686001" height="67.70437741686001" width="316.416"><g><svg viewBox="0 0 316.416 67.70437741686001" height="67.70437741686001" width="316.416"><g><svg viewBox="0 0 316.416 67.70437741686001" height="67.70437741686001" width="316.416"><g><svg viewBox="0 0 316.416 67.70437741686001" height="67.70437741686001" width="316.416"><g transform="matrix(1,0,0,1,0,0)"><svg width="316.416" viewBox="2.1500000953674316 -40.95000076293945 193.94000244140625 41.5" height="67.70437741686001" data-palette-color="#6d285f"><path d="M6.45-2.95L6.45-34.05 2.15-34.65 2.15-37.15 28.9-37.15 29.4-28.65 26.15-28.65 24.65-34.2 11.8-34.55 11.8-20.05 20.85-20.2 21.7-24.35 24.35-24.35 24.35-12.65 21.75-12.65 20.85-17 11.8-17.2 11.8-2.95 19.6-2.45 19.6 0 2.45 0 2.45-2.45 6.45-2.95ZM33.2-7.5Q33.2-12.2 37.9-14.43 42.6-16.65 49.8-16.8L49.8-16.8 49.8-18.2Q49.8-20.55 49.3-21.9 48.8-23.25 47.57-23.88 46.35-24.5 44.1-24.5L44.1-24.5Q41.55-24.5 39.52-23.78 37.5-23.05 35.5-22L35.5-22 34.25-24.6Q34.9-25.15 36.65-26.05 38.4-26.95 40.7-27.65 43-28.35 45.3-28.35L45.3-28.35Q48.85-28.35 50.92-27.38 53-26.4 53.9-24.25 54.8-22.1 54.8-18.5L54.8-18.5 54.8-2.45 57.75-2.45 57.75-0.25Q56.75 0 55.22 0.25 53.7 0.5 52.55 0.5L52.55 0.5Q51.15 0.5 50.65 0.08 50.15-0.35 50.15-1.8L50.15-1.8 50.15-3.45Q48.65-1.95 46.47-0.7 44.3 0.55 41.55 0.55L41.55 0.55Q37.95 0.55 35.57-1.53 33.2-3.6 33.2-7.5L33.2-7.5ZM43.7-2.85Q45-2.85 46.7-3.65 48.4-4.45 49.8-5.55L49.8-5.55 49.8-14.15Q44.35-14.15 41.57-12.48 38.8-10.8 38.8-8.1L38.8-8.1Q38.8-5.4 40.12-4.13 41.45-2.85 43.7-2.85L43.7-2.85ZM65-7.9L65.9-4Q66.4-3.25 68.02-2.65 69.65-2.05 71.45-2.05L71.45-2.05Q74.3-2.05 75.65-3.15 77-4.25 77-6.2L77-6.2Q77-7.55 76.15-8.55 75.3-9.55 73.77-10.33 72.25-11.1 69.4-12.2L69.4-12.2Q65.55-13.65 63.77-15.68 62-17.7 62-21L62-21Q62-23.2 63.32-24.85 64.65-26.5 66.97-27.43 69.3-28.35 72.15-28.35L72.15-28.35Q74.45-28.35 76.17-28 77.9-27.65 78.95-27.3 80-26.95 80.34-26.85L80.34-26.85 80.34-20.65 77.3-20.65 76.3-24.35Q76-24.95 74.7-25.38 73.4-25.8 71.8-25.8L71.8-25.8Q69.55-25.8 68.17-24.8 66.8-23.8 66.8-22.1L66.8-22.1Q66.8-20.6 67.52-19.63 68.25-18.65 69.34-18.05 70.45-17.45 72.34-16.65L72.34-16.65 73.34-16.25Q76.15-15.15 77.9-14.15 79.65-13.15 80.82-11.53 82-9.9 82-7.55L82-7.55Q82-3.85 79.12-1.65 76.25 0.55 71.25 0.55L71.25 0.55Q68.8 0.55 66.12-0.13 63.45-0.8 61.75-1.5L61.75-1.5 61.75-7.9 65-7.9ZM89.19-2.85L89.19-37.3 84.99-37.85 84.99-40 93.14-40.95 93.24-40.95 94.34-40.2 94.34-28.6 94.14-24.35Q95.74-25.8 98.54-27.1 101.34-28.4 104.19-28.4L104.19-28.4Q107.34-28.4 109.09-27.2 110.84-26 111.54-23.53 112.24-21.05 112.24-16.85L112.24-16.85 112.24-2.9 115.74-2.45 115.74 0 103.79 0 103.79-2.45 107.04-2.9 107.04-16.9Q107.04-19.85 106.64-21.53 106.24-23.2 105.14-24.03 104.04-24.85 101.84-24.85L101.84-24.85Q100.04-24.85 97.99-23.95 95.94-23.05 94.39-21.85L94.39-21.85 94.39-2.9 97.84-2.45 97.84 0 86.19 0 86.19-2.45 89.19-2.85ZM125.34-32.75Q123.74-32.75 122.94-33.65 122.14-34.55 122.14-35.95L122.14-35.95Q122.14-37.55 123.12-38.6 124.09-39.65 125.79-39.65L125.79-39.65Q127.49-39.65 128.29-38.75 129.09-37.85 129.09-36.45L129.09-36.45Q129.09-34.75 128.12-33.75 127.14-32.75 125.39-32.75L125.39-32.75 125.34-32.75ZM123.34-2.9L123.34-23.9 119.54-24.8 119.54-27.45 127.29-28.4 127.39-28.4 128.54-27.5 128.54-2.85 132.54-2.45 132.54 0 119.29 0 119.29-2.45 123.34-2.9ZM136.09-13.95Q136.09-18.45 137.94-21.75 139.79-25.05 142.81-26.78 145.84-28.5 149.29-28.5L149.29-28.5Q155.59-28.5 158.76-24.5 161.94-20.5 161.94-14L161.94-14Q161.94-9.45 160.09-6.15 158.24-2.85 155.21-1.15 152.19 0.55 148.74 0.55L148.74 0.55Q142.44 0.55 139.26-3.45 136.09-7.45 136.09-13.95L136.09-13.95ZM149.04-2.3Q152.49-2.3 154.34-5.15 156.19-8 156.19-13.6L156.19-13.6Q156.19-19.15 154.49-22.4 152.79-25.65 149.04-25.65L149.04-25.65Q145.59-25.65 143.71-22.8 141.84-19.95 141.84-14.35L141.84-14.35Q141.84-8.8 143.59-5.55 145.34-2.3 149.04-2.3L149.04-2.3ZM169.49-2.9L169.49-23.9 165.89-24.8 165.89-27.5 173.04-28.4 173.19-28.4 174.24-27.5 174.24-25.4 174.19-24.2Q175.99-25.8 178.94-27.1 181.89-28.4 184.59-28.4L184.59-28.4Q187.74-28.4 189.46-27.2 191.19-26 191.89-23.53 192.59-21.05 192.59-16.85L192.59-16.85 192.59-2.85 196.09-2.5 196.09 0 184.24 0 184.24-2.45 187.34-2.85 187.34-16.9Q187.34-19.85 186.94-21.53 186.54-23.2 185.44-24.03 184.34-24.85 182.24-24.85L182.24-24.85Q180.44-24.85 178.39-23.95 176.34-23.05 174.74-21.85L174.74-21.85 174.74-2.9 178.14-2.45 178.14 0 166.34 0 166.34-2.45 169.49-2.9Z" opacity="1" transform="matrix(1,0,0,1,0,0)" fill="#6d285f" class="undefined-text-0" data-fill-palette-color="primary" id="text-0"></path></svg></g></svg></g></svg></g></svg></g><g></g></svg></g></svg></g></svg></g></svg></g></svg><rect width="375.07952880859375" height="196.54074096679688" fill="none" stroke="none" visibility="hidden"></rect></g><defs></defs></svg>